<?xml version="1.0" encoding="utf-8"?>
<!-- Generator: Adobe Illustrator 19.0.1, SVG Export Plug-In . SVG Version: 6.00 Build 0)  -->
<svg version="1.1" id="Layer_1" xmlns="http://www.w3.org/2000/svg" xmlns:xlink="http://www.w3.org/1999/xlink" x="0px" y="0px"
	 viewBox="0 0 59.6 19.6" style="enable-background:new 0 0 59.6 19.6;" xml:space="preserve">
<style type="text/css">
	.st0{fill:#FFFFFF;}
</style>
<g>
	<path class="st0" d="M11.2,6.9c1.1,0,2.2,0,3.2,0c0.2,0,0.3,0,0.3,0.2c0.2,1.8,0,3.5-1,5c-1.3,1.9-3.1,2.9-5.4,3
		c-3,0.2-5.5-1-7.1-3.6c-2.4-3.7-1-8.7,3-10.7c2.9-1.4,6.1-1,8.4,1c0.2,0.2,0.3,0.3,0,0.5C12.3,2.7,12,3,11.6,3.4
		c-0.1,0.1-0.2,0.1-0.4,0c-3-2.5-7.5-1.3-8.7,2.5c-0.9,2.9,0.6,6,3.5,7c2.1,0.7,4,0.3,5.6-1.3c0.6-0.6,0.9-1.5,1-2.3
		c0-0.2-0.1-0.2-0.2-0.2c-1.3,0-2.6,0-3.9,0C7.7,9,7.7,9,7.7,8.2c0-0.3,0-0.7,0-1c0-0.3,0.1-0.3,0.3-0.3C9.1,6.9,10.1,6.9,11.2,6.9z
		"/>
	<path class="st0" d="M44.1,14.1c-0.2,0.2-0.4,0.4-0.6,0.5c-1.1,0.7-2.3,0.8-3.5,0.4c-2.1-0.7-3.4-2.8-3.2-5c0.1-2.1,1.7-4,3.8-4.4
		c1.2-0.3,2.4,0,3.3,0.9c0,0,0.1,0,0.1,0.1c0,0,0,0,0.1,0c0-0.2,0-0.3,0-0.5c0-0.2,0.1-0.2,0.2-0.2c0.5,0,1,0,1.6,0
		c0.2,0,0.2,0.1,0.2,0.2c0,3.1,0,6.1,0,9.2c0,1.4-0.5,2.7-1.7,3.6c-2.3,1.8-6,0.8-7.1-1.8c-0.1-0.2,0-0.2,0.1-0.3
		c0.5-0.2,0.9-0.4,1.4-0.6c0.2-0.1,0.3,0,0.4,0.2c0.8,1.5,2.3,1.8,3.5,1.2c0.9-0.4,1.3-1.1,1.4-2C44.1,15,44.1,14.5,44.1,14.1z
		 M38.9,10.3c0,0.4,0.1,0.8,0.2,1.2c0.4,1,1.2,1.7,2.3,1.8c1,0.1,1.8-0.4,2.3-1.2c0.7-1.1,0.6-2.3,0-3.5C43,7.3,41.4,7,40.2,7.8
		C39.3,8.4,38.9,9.3,38.9,10.3z"/>
	<path class="st0" d="M31,5.4c2.8,0,4.9,2.1,4.9,4.9c0,2.7-2.2,4.9-4.9,4.9c-2.8,0-4.9-2.1-5-4.8C26.1,7.5,28.2,5.4,31,5.4z
		 M31,13.2c0.5,0,0.9-0.1,1.3-0.3c1.4-0.8,1.9-2.6,1.1-4.1c-0.8-1.5-2.7-1.9-4-0.9c-1,0.7-1.3,1.8-1.1,3
		C28.5,12.2,29.7,13.2,31,13.2z"/>
	<path class="st0" d="M20.4,15.2c-2.7,0-4.9-2.1-4.9-4.8c0-2.8,2.1-4.9,4.8-4.9c2.8,0,4.9,2.1,5,4.8C25.3,13,23.2,15.2,20.4,15.2z
		 M23.1,10.3c0-0.2,0-0.4-0.1-0.6c-0.3-2.1-2.6-3.1-4.3-1.9c-1,0.8-1.3,1.8-1.1,3.1c0.2,1.5,1.6,2.5,3.2,2.3
		C22.1,13,23.1,11.8,23.1,10.3z"/>
	<path class="st0" d="M55.5,15.2c-2.7,0-4.7-2-4.8-4.7c0-1.5,0.4-2.9,1.5-3.9c1.7-1.6,5-1.8,6.7,1.1c0.2,0.4,0.4,0.8,0.6,1.2
		c0.1,0.2,0,0.3-0.2,0.3c-2,0.8-4,1.6-6,2.5c-0.3,0.1-0.3,0.1-0.1,0.4c1,1.6,3.3,1.6,4.4,0c0.1-0.2,0.2-0.2,0.4-0.1
		c0.4,0.3,0.8,0.6,1.3,0.8c0.1,0.1,0.1,0.2,0,0.3C58.4,14.5,57.1,15.2,55.5,15.2z M52.7,9.9c0,0.1,0,0.3,0.2,0.2
		c1.3-0.6,2.7-1.1,4-1.7c0.2-0.1,0.2-0.1,0.1-0.3c-0.3-0.4-0.6-0.6-1.1-0.8C54.4,7,52.8,8.2,52.7,9.9z"/>
	<path class="st0" d="M49.7,7.7c0,2.3,0,4.6,0,6.9c0,0.2-0.1,0.3-0.3,0.3c-0.5,0-1.1,0-1.6,0c-0.2,0-0.3-0.1-0.3-0.3
		c0-3.7,0-7.5,0-11.2c0-0.9,0-1.7,0-2.6c0-0.2,0.1-0.3,0.3-0.3c0.5,0,1.1,0,1.6,0c0.2,0,0.3,0.1,0.3,0.3C49.7,3.1,49.7,5.4,49.7,7.7
		z"/>
</g>
</svg>
